<svg aria-hidden="true" style="position: absolute; width: 0; height: 0; overflow: hidden;" version="1.1" xmlns="http://www.w3.org/2000/svg" xmlns:xlink="http://www.w3.org/1999/xlink">
<defs>
<symbol id="icon-favicon" viewBox="0 0 32 32">
<path fill="#508f8c" style="fill: var(--color1, #508f8c)" d="M24 13.333h-16c-1.12 0-2.067 0.693-2.467 1.667l14.813 3.627c0.413 0.107 0.853 0 1.173-0.267l4.653-3.893c-0.493-0.68-1.28-1.133-2.173-1.133zM24 8h-16c-1.467 0-2.667 1.2-2.667 2.667v0.733c0.787-0.453 1.693-0.733 2.667-0.733h16c0.973 0 1.88 0.28 2.667 0.733v-0.733c0-1.467-1.2-2.667-2.667-2.667z"></path>
<path fill="#081222" style="fill: var(--color2, #081222)" d="M24 5.333h-16c-2.947 0-5.333 2.387-5.333 5.333v10.667c0 2.947 2.387 5.333 5.333 5.333h16c2.947 0 5.333-2.387 5.333-5.333v-10.667c0-2.947-2.387-5.333-5.333-5.333zM21.52 18.36c-0.32 0.267-0.76 0.373-1.173 0.267l-14.813-3.627c0.4-0.973 1.347-1.667 2.467-1.667h16c0.893 0 1.68 0.453 2.173 1.12l-4.653 3.907zM26.667 11.4c-0.787-0.453-1.693-0.733-2.667-0.733h-16c-0.973 0-1.88 0.28-2.667 0.733v-0.733c0-1.467 1.2-2.667 2.667-2.667h16c1.467 0 2.667 1.2 2.667 2.667v0.733z"></path>
</symbol>
</defs>
</svg>
